<svg width="119" height="119" viewBox="0 0 119 119" fill="none" xmlns="http://www.w3.org/2000/svg">
<path d="M104.125 0H14.875C6.65976 0 0 6.65976 0 14.875V104.125C0 112.34 6.65976 119 14.875 119H104.125C112.34 119 119 112.34 119 104.125V14.875C119 6.65976 112.34 0 104.125 0Z" fill="black"/>
<path d="M18.4503 56.2646H22.5558V58.6446C23.7656 56.7802 25.4019 55.8481 27.4646 55.8481C28.6347 55.8481 29.6264 56.1257 30.4396 56.6811C31.2726 57.2166 31.8775 57.9901 32.2543 59.0016C32.9485 57.9107 33.722 57.1176 34.5748 56.6216C35.4475 56.1061 36.4391 55.8481 37.5498 55.8481C39.196 55.8481 40.4752 56.3441 41.3876 57.3356C42.3197 58.3076 42.7858 59.6659 42.7858 61.4114V71.5859H38.5911V62.0659C38.5911 61.2724 38.3927 60.6579 37.9961 60.2214C37.6192 59.7654 37.1036 59.5371 36.4491 59.5371C35.6359 59.5371 34.8822 59.8742 34.1881 60.5486C33.4939 61.2231 32.9782 62.0859 32.6411 63.1369V71.5859H28.4463V62.0659C28.4463 61.2924 28.248 60.6774 27.8513 60.2214C27.4546 59.7654 26.9291 59.5371 26.2746 59.5371C25.5407 59.5371 24.8466 59.8147 24.1921 60.3701C23.5574 60.9056 23.0417 61.6694 22.6451 62.6609V71.5859H18.4503V56.2646ZM53.8899 72.0321C51.4104 72.0321 49.4571 71.3181 48.0291 69.8901C46.6206 68.4621 45.9168 66.4787 45.9168 63.9401C45.9168 62.2941 46.2242 60.8661 46.8391 59.6561C47.4536 58.4266 48.3164 57.4844 49.4274 56.8299C50.5578 56.1754 51.8766 55.8481 53.3841 55.8481C55.6051 55.8481 57.3111 56.5621 58.5011 57.9901C59.6911 59.4181 60.2861 61.4807 60.2861 64.1781C60.2861 64.6342 60.2759 64.9716 60.2564 65.1896H50.1413C50.3394 66.2407 50.7958 67.0439 51.5098 67.5994C52.2239 68.1349 53.1856 68.4026 54.3956 68.4026C55.1291 68.4026 55.8929 68.3134 56.6863 68.1349C57.4794 67.9364 58.1739 67.6789 58.7689 67.3614L59.4531 70.7231C58.6596 71.1396 57.7769 71.4571 56.8054 71.6751C55.8534 71.9131 54.8814 72.0321 53.8899 72.0321ZM56.2699 62.0361C56.2104 61.1832 55.9128 60.5091 55.3773 60.0131C54.8419 59.4976 54.1279 59.2396 53.2354 59.2396C52.3824 59.2396 51.6781 59.4874 51.1231 59.9834C50.5876 60.4794 50.2501 61.1636 50.1116 62.0361H56.2699ZM65.907 72.5974C65.074 72.5974 64.3502 72.2901 63.7352 71.6751C63.1402 71.0801 62.8427 70.3661 62.8427 69.5331C62.8427 68.6802 63.1402 67.9564 63.7352 67.3614C64.3502 66.7464 65.074 66.4391 65.907 66.4391C66.76 66.4391 67.4837 66.7464 68.0787 67.3614C68.6737 67.9564 68.9712 68.6802 68.9712 69.5331C68.9712 70.3661 68.6737 71.0801 68.0787 71.6751C67.4837 72.2901 66.76 72.5974 65.907 72.5974Z" fill="white"/>
<path d="M77.6266 72.0322C75.9011 72.0322 74.5428 71.3777 73.5509 70.0687C72.5793 68.7397 72.0931 66.8952 72.0931 64.5352C72.0931 61.7387 72.8173 59.5967 74.2649 58.1092C75.7328 56.6017 77.8153 55.8482 80.5124 55.8482C80.8498 55.8482 81.3556 55.8681 82.0296 55.9077V49.8684H86.1649V71.5859H82.0891L82.1784 69.5927H82.0594C81.5438 70.3862 80.9093 70.9909 80.1554 71.4074C79.4218 71.8239 78.5786 72.0322 77.6266 72.0322ZM78.5786 68.3729C79.2136 68.3729 79.8281 68.1052 80.4231 67.5697C81.0181 67.0142 81.5536 66.2309 82.0296 65.2194V59.7752C81.3556 59.5967 80.7108 59.5074 80.0959 59.5074C78.8464 59.5074 77.8944 59.9141 77.2399 60.7272C76.6053 61.5402 76.2879 62.7302 76.2879 64.2972C76.2879 65.5667 76.4863 66.5679 76.8829 67.3019C77.2994 68.0159 77.8646 68.3729 78.5786 68.3729ZM94.44 72.0322C93.468 72.0322 92.5258 71.9332 91.6138 71.7347C90.7213 71.5362 89.9575 71.2684 89.323 70.9314L89.7098 67.3614C90.3838 67.7779 91.1275 68.1149 91.941 68.3729C92.754 68.6309 93.5178 68.7597 94.2318 68.7597C94.9058 68.7597 95.471 68.6407 95.9275 68.4027C96.3835 68.1447 96.6118 67.7779 96.6118 67.3019C96.6118 66.9249 96.4528 66.6376 96.1358 66.4392C95.8183 66.2211 95.2135 65.9534 94.321 65.6359L93.5178 65.3384C92.6648 65.0209 91.9708 64.7234 91.4353 64.4459C90.8998 64.1484 90.4135 63.7022 89.9775 63.1072C89.541 62.5122 89.323 61.7289 89.323 60.7569C89.323 59.2099 89.898 58.0101 91.0485 57.1572C92.2185 56.2846 93.7358 55.8482 95.6003 55.8482C97.0678 55.8482 98.6148 56.1359 100.241 56.7109L99.676 60.2512C99.1005 59.9141 98.446 59.6464 97.7125 59.4479C96.9985 59.2299 96.324 59.1207 95.6895 59.1207C95.035 59.1207 94.5093 59.2299 94.1128 59.4479C93.7358 59.6659 93.5475 59.9834 93.5475 60.3999C93.5475 60.7964 93.706 61.0939 94.0235 61.2924C94.3405 61.4909 94.876 61.7187 95.63 61.9767C96.225 62.1947 96.5718 62.3239 96.6713 62.3634C97.5043 62.7004 98.1983 63.0277 98.7538 63.3452C99.3088 63.6626 99.795 64.1386 100.212 64.7732C100.628 65.3881 100.836 66.1812 100.836 67.1532C100.836 68.7796 100.251 69.9994 99.081 70.8124C97.9105 71.6254 96.3635 72.0322 94.44 72.0322Z" fill="url(#paint0_linear_109_47)"/>
<defs>
<linearGradient id="paint0_linear_109_47" x1="76.4668" y1="71.5859" x2="106.217" y2="41.3711" gradientUnits="userSpaceOnUse">
<stop stop-color="#62D9FF"/>
<stop offset="1" stop-color="#3354FF"/>
</linearGradient>
</defs>
</svg>
