<svg width="98" height="98" viewBox="0 0 98 98" fill="none" xmlns="http://www.w3.org/2000/svg">
<path d="M85.75 0H12.25C5.48451 0 0 5.48451 0 12.25V85.75C0 92.5155 5.48451 98 12.25 98H85.75C92.5155 98 98 92.5155 98 85.75V12.25C98 5.48451 92.5155 0 85.75 0Z" fill="black"/>
<path d="M23.6109 40.7926H28.6824V43.7326C30.1769 41.4296 32.1982 40.2781 34.7462 40.2781C36.1917 40.2781 37.4166 40.6211 38.4213 41.3071C39.4503 41.9686 40.1976 42.9241 40.6631 44.1736C41.5206 42.8261 42.4761 41.8461 43.5296 41.2336C44.6076 40.5966 45.8326 40.2781 47.2046 40.2781C49.2381 40.2781 50.8183 40.8906 51.9453 42.1156C53.0968 43.3161 53.6726 44.9943 53.6726 47.1503V59.7188H48.4908V47.9588C48.4908 46.9788 48.2458 46.2193 47.7558 45.6803C47.2903 45.1168 46.6533 44.8351 45.8448 44.8351C44.8403 44.8351 43.9093 45.2516 43.0518 46.0846C42.1943 46.9176 41.5573 47.9833 41.1408 49.2818V59.7188H35.9589V47.9588C35.9589 47.0033 35.7139 46.2438 35.2239 45.6803C34.7339 45.1168 34.0847 44.8351 33.2761 44.8351C32.3696 44.8351 31.5121 45.1781 30.7036 45.8641C29.9196 46.5256 29.2827 47.4688 28.7927 48.6938V59.7188H23.6109V40.7926ZM67.3891 60.2701C64.3266 60.2701 61.9134 59.3881 60.1494 57.6241C58.4099 55.8601 57.5401 53.4101 57.5401 50.2741C57.5401 48.2406 57.9199 46.4766 58.6794 44.9821C59.4389 43.4631 60.5046 42.2993 61.8766 41.4908C63.2731 40.6823 64.9024 40.2781 66.7644 40.2781C69.5084 40.2781 71.6154 41.1601 73.0854 42.9241C74.5554 44.6881 75.2904 47.2361 75.2904 50.5681C75.2904 51.1316 75.2781 51.5481 75.2536 51.8176H62.7586C63.0036 53.1161 63.5671 54.1083 64.4491 54.7943C65.3311 55.4558 66.5194 55.7866 68.0139 55.7866C68.9204 55.7866 69.8636 55.6763 70.8436 55.4558C71.8236 55.2108 72.6811 54.8923 73.4161 54.5003L74.2614 58.6531C73.2814 59.1676 72.1911 59.5596 70.9906 59.8291C69.8146 60.1231 68.6141 60.2701 67.3891 60.2701ZM70.3291 47.9221C70.2556 46.8686 69.8881 46.0356 69.2266 45.4231C68.5651 44.7861 67.6831 44.4676 66.5806 44.4676C65.5271 44.4676 64.6574 44.7738 63.9714 45.3863C63.3099 45.9988 62.8934 46.8441 62.7219 47.9221H70.3291Z" fill="white"/>
</svg>
